<svg width="29" height="29" viewBox="0 0 29 29" fill="none" xmlns="http://www.w3.org/2000/svg">
<circle cx="14.5" cy="14.5" r="14.5" fill="white"/>
<path d="M16.6833 10.0249L18.7917 8.40825L16.1333 8.33325L15.25 5.83325L14.3667 8.33325L11.7083 8.40825L13.8167 10.0249L13.0583 12.5749L15.25 11.0666L17.4417 12.5749L16.6833 10.0249Z" fill="#FFC82F"/>
<path d="M20.3417 15.2083L21.7083 14.1667L19.9917 14.125L19.4167 12.5L18.8417 14.125L17.125 14.1667L18.4917 15.2083L18 16.8583L19.4167 15.8833L20.8333 16.8583L20.3417 15.2083Z" fill="#FFC82F"/>
<path d="M9.83333 9.99995C9.83333 15.0666 13.9333 19.1666 19 19.1666C19.4417 19.1666 19.875 19.1333 20.3 19.075C18.9583 21.1333 16.6417 22.5 14 22.5C9.85833 22.5 6.5 19.1416 6.5 15C6.5 12.3583 7.86667 10.0416 9.925 8.69995C9.86667 9.12495 9.83333 9.55828 9.83333 9.99995Z" fill="#FFC82F" stroke="#FFC82F" stroke-width="2" stroke-linecap="round" stroke-linejoin="round"/>
</svg>
