<svg width="29" height="29" viewBox="0 0 29 29" fill="none" xmlns="http://www.w3.org/2000/svg">
<circle cx="14.5" cy="14.5" r="14.5" fill="#F1F4FF"/>
<path d="M19 15C19 16.3261 18.4732 17.5979 17.5355 18.5355C16.5979 19.4732 15.3261 20 14 20C12.6739 20 11.4021 19.4732 10.4645 18.5355C9.52678 17.5979 9 16.3261 9 15C9 13.6739 9.52678 12.4021 10.4645 11.4645C11.4021 10.5268 12.6739 10 14 10C15.3261 10 16.5979 10.5268 17.5355 11.4645C18.4732 12.4021 19 13.6739 19 15Z" fill="#FFC82F"/>
<path fill-rule="evenodd" clip-rule="evenodd" d="M14 6.04102C14.1658 6.04102 14.3247 6.10686 14.4419 6.22407C14.5592 6.34128 14.625 6.50026 14.625 6.66602V7.49935C14.625 7.66511 14.5592 7.82408 14.4419 7.94129C14.3247 8.0585 14.1658 8.12435 14 8.12435C13.8342 8.12435 13.6753 8.0585 13.5581 7.94129C13.4409 7.82408 13.375 7.66511 13.375 7.49935V6.66602C13.375 6.50026 13.4409 6.34128 13.5581 6.22407C13.6753 6.10686 13.8342 6.04102 14 6.04102ZM5.04167 14.9993C5.04167 14.8336 5.10752 14.6746 5.22473 14.5574C5.34194 14.4402 5.50091 14.3743 5.66667 14.3743H6.5C6.66577 14.3743 6.82474 14.4402 6.94195 14.5574C7.05916 14.6746 7.125 14.8336 7.125 14.9993C7.125 15.1651 7.05916 15.3241 6.94195 15.4413C6.82474 15.5585 6.66577 15.6243 6.5 15.6243H5.66667C5.50091 15.6243 5.34194 15.5585 5.22473 15.4413C5.10752 15.3241 5.04167 15.1651 5.04167 14.9993ZM20.875 14.9993C20.875 14.8336 20.9409 14.6746 21.0581 14.5574C21.1753 14.4402 21.3342 14.3743 21.5 14.3743H22.3333C22.4991 14.3743 22.6581 14.4402 22.7753 14.5574C22.8925 14.6746 22.9583 14.8336 22.9583 14.9993C22.9583 15.1651 22.8925 15.3241 22.7753 15.4413C22.6581 15.5585 22.4991 15.6243 22.3333 15.6243H21.5C21.3342 15.6243 21.1753 15.5585 21.0581 15.4413C20.9409 15.3241 20.875 15.1651 20.875 14.9993ZM14 21.8743C14.1658 21.8743 14.3247 21.9402 14.4419 22.0574C14.5592 22.1746 14.625 22.3336 14.625 22.4993V23.3327C14.625 23.4984 14.5592 23.6574 14.4419 23.7746C14.3247 23.8918 14.1658 23.9577 14 23.9577C13.8342 23.9577 13.6753 23.8918 13.5581 23.7746C13.4409 23.6574 13.375 23.4984 13.375 23.3327V22.4993C13.375 22.3336 13.4409 22.1746 13.5581 22.0574C13.6753 21.9402 13.8342 21.8743 14 21.8743Z" fill="#FFC82F"/>
<path opacity="0.5" d="M7.66499 8.66562C7.72304 8.60754 7.79195 8.56147 7.86781 8.53004C7.94366 8.4986 8.02497 8.48242 8.10708 8.48242C8.18919 8.48242 8.27049 8.4986 8.34635 8.53004C8.4222 8.56147 8.49112 8.60754 8.54916 8.66562L8.87666 8.99312C8.98706 9.1116 9.04716 9.26831 9.04431 9.43022C9.04145 9.59214 8.97586 9.74663 8.86135 9.86114C8.74683 9.97565 8.59235 10.0412 8.43043 10.0441C8.26851 10.047 8.11181 9.98685 7.99333 9.87645L7.66499 9.54979C7.54795 9.4326 7.48221 9.27375 7.48221 9.10812C7.48221 8.9425 7.54795 8.78364 7.66499 8.66646M20.3333 8.66646C20.4504 8.78364 20.5161 8.9425 20.5161 9.10812C20.5161 9.27375 20.4504 9.4326 20.3333 9.54979L20.0067 9.87729C19.8882 9.98769 19.7315 10.0478 19.5696 10.0449C19.4076 10.0421 19.2532 9.97648 19.1386 9.86197C19.0241 9.74746 18.9585 9.59297 18.9557 9.43106C18.9528 9.26914 19.0129 9.11243 19.1233 8.99395L19.45 8.66646C19.5672 8.54941 19.726 8.48367 19.8917 8.48367C20.0573 8.48367 20.2161 8.54941 20.3333 8.66646ZM19.1225 20.1231C19.1805 20.065 19.2495 20.019 19.3253 19.9875C19.4012 19.9561 19.4825 19.9399 19.5646 19.9399C19.6467 19.9399 19.728 19.9561 19.8038 19.9875C19.8797 20.019 19.9486 20.065 20.0067 20.1231L20.3342 20.4506C20.4446 20.5691 20.5047 20.7258 20.5018 20.8877C20.499 21.0496 20.4334 21.2041 20.3188 21.3186C20.2043 21.4332 20.0498 21.4987 19.8879 21.5016C19.726 21.5045 19.5693 21.4444 19.4508 21.334L19.1225 21.0073C19.0055 20.8901 18.9397 20.7312 18.9397 20.5656C18.9397 20.4 19.0055 20.2411 19.1225 20.124M8.87666 20.124C8.9937 20.2411 9.05944 20.4 9.05944 20.5656C9.05944 20.7312 8.9937 20.8901 8.87666 21.0073L8.54916 21.3348C8.49194 21.3962 8.42294 21.4454 8.34628 21.4796C8.26961 21.5138 8.18685 21.5321 8.10293 21.5336C8.01901 21.5351 7.93565 21.5197 7.85783 21.4882C7.78001 21.4568 7.70931 21.41 7.64996 21.3507C7.59061 21.2913 7.54383 21.2206 7.51239 21.1428C7.48096 21.065 7.46552 20.9816 7.467 20.8977C7.46848 20.8138 7.48685 20.731 7.52101 20.6543C7.55517 20.5777 7.60442 20.5087 7.66583 20.4515L7.99249 20.124C8.10968 20.0069 8.26854 19.9412 8.43416 19.9412C8.59979 19.9412 8.75864 20.0069 8.87583 20.124" fill="#FFC82F"/>
</svg>
