<svg xmlns="http://www.w3.org/2000/svg" xmlns:xlink="http://www.w3.org/1999/xlink" viewBox="0 0 1020 1020" width="1020" height="1020" preserveAspectRatio="xMidYMid meet" style="width: 100%; height: 100%; transform: translate3d(0px, 0px, 0px); content-visibility: visible;"><defs><clipPath id="__lottie_element_2"><rect width="1020" height="1020" x="0" y="0"/></clipPath></defs><g clip-path="url(#__lottie_element_2)"><g transform="matrix(1,0,0,1,357,500)" opacity="1" style="display: block;"><g opacity="1" transform="matrix(1,0,0,1,33,10)"><path fill="rgb(229,57,53)" fill-opacity="1" d=" M519,0 C519,65.16999816894531 466.1700134277344,118 401,118 C401,118 -161,118 -161,118 C-226.1699981689453,118 -279,65.16999816894531 -279,0 C-279,-65.16999816894531 -226.1699981689453,-118 -161,-118 C-161,-118 401,-118 401,-118 C466.1700134277344,-118 519,-65.16999816894531 519,0z"/></g></g><g transform="matrix(0.4000000059604645,0,0,0.4000000059604645,556.5,294)" opacity="1" style="display: block;"><g opacity="1" transform="matrix(4.199999809265137,0,0,4.199999809265137,124.20001220703125,199.80001831054688)"><g opacity="1" transform="matrix(1,0,0,1,99,81)"><path stroke-linecap="butt" stroke-linejoin="miter" fill-opacity="0" stroke-miterlimit="4" stroke="rgb(255,255,255)" stroke-opacity="1" stroke-width="0.000003086610231406439" d=" M0,-50 C27.594999313354492,-50 50,-27.594999313354492 50,0 C50,27.594999313354492 27.594999313354492,50 0,50 C-27.594999313354492,50 -50,27.594999313354492 -50,0 C-50,-27.594999313354492 -27.594999313354492,-50 0,-50z"/></g></g><g opacity="1" transform="matrix(4.199999809265137,0,0,4.199999809265137,124.20001220703125,199.80001831054688)"><g opacity="1" transform="matrix(1,0,0,1,99,81)"><path stroke-linecap="butt" stroke-linejoin="miter" fill-opacity="0" stroke-miterlimit="4" stroke="rgb(255,255,255)" stroke-opacity="1" stroke-width="0" d=" M0,-50 C27.594999313354492,-50 50,-27.594999313354492 50,0 C50,27.594999313354492 27.594999313354492,50 0,50 C-27.594999313354492,50 -50,27.594999313354492 -50,0 C-50,-27.594999313354492 -27.594999313354492,-50 0,-50z"/></g></g><g opacity="1" transform="matrix(4.199997425079346,0,0,4.199997425079346,124.20025634765625,199.80020141601562)"><g opacity="1" transform="matrix(1,0,0,1,99,81)"><path stroke-linecap="butt" stroke-linejoin="miter" fill-opacity="0" stroke-miterlimit="4" stroke="rgb(255,255,255)" stroke-opacity="1" stroke-width="0" d=" M0,-50 C27.594999313354492,-50 50,-27.594999313354492 50,0 C50,27.594999313354492 27.594999313354492,50 0,50 C-27.594999313354492,50 -50,27.594999313354492 -50,0 C-50,-27.594999313354492 -27.594999313354492,-50 0,-50z"/></g></g><g opacity="1" transform="matrix(4.1714677810668945,0,0,4.1714677810668945,127.02468872070312,202.11111450195312)"><g opacity="1" transform="matrix(1,0,0,1,99,81)"><path stroke-linecap="butt" stroke-linejoin="miter" fill-opacity="0" stroke-miterlimit="4" stroke="rgb(255,255,255)" stroke-opacity="1" stroke-width="0.20380368878057809" d=" M0,-50 C27.594999313354492,-50 50,-27.594999313354492 50,0 C50,27.594999313354492 27.594999313354492,50 0,50 C-27.594999313354492,50 -50,27.594999313354492 -50,0 C-50,-27.594999313354492 -27.594999313354492,-50 0,-50z"/></g></g><g opacity="1" transform="matrix(2.849804401397705,0,0,2.849804401397705,257.8693542480469,309.16583251953125)"><g opacity="1" transform="matrix(1,0,0,1,99,81)"><path stroke-linecap="butt" stroke-linejoin="miter" fill-opacity="0" stroke-miterlimit="4" stroke="rgb(255,255,255)" stroke-opacity="1" stroke-width="9.644254282388086" d=" M0,-50 C27.594999313354492,-50 50,-27.594999313354492 50,0 C50,27.594999313354492 27.594999313354492,50 0,50 C-27.594999313354492,50 -50,27.594999313354492 -50,0 C-50,-27.594999313354492 -27.594999313354492,-50 0,-50z"/></g></g><g opacity="1" transform="matrix(0.6950130462646484,0,0,0.6950130462646484,471.1937255859375,483.7039489746094)"><g opacity="1" transform="matrix(1,0,0,1,99,81)"><path stroke-linecap="butt" stroke-linejoin="miter" fill-opacity="0" stroke-miterlimit="4" stroke="rgb(255,255,255)" stroke-opacity="1" stroke-width="25.035621279985655" d=" M0,-50 C27.594999313354492,-50 50,-27.594999313354492 50,0 C50,27.594999313354492 27.594999313354492,50 0,50 C-27.594999313354492,50 -50,27.594999313354492 -50,0 C-50,-27.594999313354492 -27.594999313354492,-50 0,-50z"/></g></g><g opacity="0" transform="matrix(0,0,0,0,540,540)"><g opacity="1" transform="matrix(1,0,0,1,99,81)"><path stroke-linecap="butt" stroke-linejoin="miter" fill-opacity="0" stroke-miterlimit="4" stroke="rgb(255,255,255)" stroke-opacity="1" stroke-width="30" d=" M0,-50 C27.594999313354492,-50 50,-27.594999313354492 50,0 C50,27.594999313354492 27.594999313354492,50 0,50 C-27.594999313354492,50 -50,27.594999313354492 -50,0 C-50,-27.594999313354492 -27.594999313354492,-50 0,-50z"/></g></g><g opacity="0" transform="matrix(0,0,0,0,540,540)"><g opacity="1" transform="matrix(1,0,0,1,99,81)"><path stroke-linecap="butt" stroke-linejoin="miter" fill-opacity="0" stroke-miterlimit="4" stroke="rgb(255,255,255)" stroke-opacity="1" stroke-width="30" d=" M0,-50 C27.594999313354492,-50 50,-27.594999313354492 50,0 C50,27.594999313354492 27.594999313354492,50 0,50 C-27.594999313354492,50 -50,27.594999313354492 -50,0 C-50,-27.594999313354492 -27.594999313354492,-50 0,-50z"/></g></g><g opacity="0" transform="matrix(0,0,0,0,540,540)"><g opacity="1" transform="matrix(1,0,0,1,99,81)"><path stroke-linecap="butt" stroke-linejoin="miter" fill-opacity="0" stroke-miterlimit="4" stroke="rgb(255,255,255)" stroke-opacity="1" stroke-width="30" d=" M0,-50 C27.594999313354492,-50 50,-27.594999313354492 50,0 C50,27.594999313354492 27.594999313354492,50 0,50 C-27.594999313354492,50 -50,27.594999313354492 -50,0 C-50,-27.594999313354492 -27.594999313354492,-50 0,-50z"/></g></g><g opacity="0" transform="matrix(0,0,0,0,540,540)"><g opacity="1" transform="matrix(1,0,0,1,99,81)"><path stroke-linecap="butt" stroke-linejoin="miter" fill-opacity="0" stroke-miterlimit="4" stroke="rgb(255,255,255)" stroke-opacity="1" stroke-width="30" d=" M0,-50 C27.594999313354492,-50 50,-27.594999313354492 50,0 C50,27.594999313354492 27.594999313354492,50 0,50 C-27.594999313354492,50 -50,27.594999313354492 -50,0 C-50,-27.594999313354492 -27.594999313354492,-50 0,-50z"/></g></g></g><g transform="matrix(1,0,0,1,436,552)" opacity="1" fill="rgb(255,255,255)" font-size="120" font-family="Montserrat" font-style="normal" font-weight="700" aria-label="NEWS" style="display: block;"><g stroke-linecap="butt" stroke-linejoin="round" stroke-miterlimit="4" transform="matrix(1,0,0,1,-196.8000030517578,0)" opacity="1" style="display: inherit;"><g><g transform="matrix(1,0,0,1,0,0)" opacity="1" style="display: block;"><path d=" M29.16,0 C29.16,0 29.16,-60.48 29.16,-60.48 C29.16,-60.48 21.36,-60.48 21.36,-60.48 C21.36,-60.48 71.04,0 71.04,0 C71.04,0 87,0 87,0 C87,0 87,-84 87,-84 C87,-84 67.8,-84 67.8,-84 C67.8,-84 67.8,-23.52 67.8,-23.52 C67.8,-23.52 75.6,-23.52 75.6,-23.52 C75.6,-23.52 26.04,-84 26.04,-84 C26.04,-84 9.96,-84 9.96,-84 C9.96,-84 9.96,0 9.96,0 C9.96,0 29.16,0 29.16,0z"/><g opacity="1" transform="matrix(1.2000000476837158,0,0,1.2000000476837158,0,0)"/></g></g></g><g stroke-linecap="butt" stroke-linejoin="round" stroke-miterlimit="4" transform="matrix(1,0,0,1,-99.84000396728516,0)" opacity="1" style="display: inherit;"><g><g transform="matrix(1,0,0,1,0,0)" opacity="1" style="display: block;"><path d=" M29.28,-68.4 C29.28,-68.4 73.44,-68.4 73.44,-68.4 C73.44,-68.4 73.44,-84 73.44,-84 C73.44,-84 9.96,-84 9.96,-84 C9.96,-84 9.96,0 9.96,0 C9.96,0 75,0 75,0 C75,0 75,-15.6 75,-15.6 C75,-15.6 29.28,-15.6 29.28,-15.6 C29.28,-15.6 29.28,-68.4 29.28,-68.4z M27.84,-35.04 C27.84,-35.04 68.28,-35.04 68.28,-35.04 C68.28,-35.04 68.28,-50.16 68.28,-50.16 C68.28,-50.16 27.84,-50.16 27.84,-50.16 C27.84,-50.16 27.84,-35.04 27.84,-35.04z"/><g opacity="1" transform="matrix(1.2000000476837158,0,0,1.2000000476837158,0,0)"/></g></g></g><g stroke-linecap="butt" stroke-linejoin="round" stroke-miterlimit="4" transform="matrix(1,0,0,1,-19.319997787475586,0)" opacity="1" style="display: inherit;"><g><g transform="matrix(1,0,0,1,0,0)" opacity="1" style="display: block;"><path d=" M51,0 C51,0 72.84,-65.28 72.84,-65.28 C72.84,-65.28 67.32,-65.28 67.32,-65.28 C67.32,-65.28 88.56,0 88.56,0 C88.56,0 109.44,0 109.44,0 C109.44,0 136.92,-84 136.92,-84 C136.92,-84 118.32,-84 118.32,-84 C118.32,-84 93.84,-9.6 93.84,-9.6 C93.84,-9.6 103.56,-9.6 103.56,-9.6 C103.56,-9.6 79.56,-84 79.56,-84 C79.56,-84 61.56,-84 61.56,-84 C61.56,-84 36.6,-9.6 36.6,-9.6 C36.6,-9.6 46.68,-9.6 46.68,-9.6 C46.68,-9.6 22.8,-84 22.8,-84 C22.8,-84 2.64,-84 2.64,-84 C2.64,-84 30.12,0 30.12,0 C30.12,0 51,0 51,0z"/><g opacity="1" transform="matrix(1.2000000476837158,0,0,1.2000000476837158,0,0)"/></g></g></g><g stroke-linecap="butt" stroke-linejoin="round" stroke-miterlimit="4" transform="matrix(1,0,0,1,120.24000549316406,0)" opacity="1" style="display: inherit;"><g><g transform="matrix(1,0,0,1,0,0)" opacity="1" style="display: block;"><path d=" M57.42,-2.16 C62.66,-4.56 66.6,-7.72 69.24,-11.64 C71.88,-15.56 73.2,-19.88 73.2,-24.6 C73.2,-29 72.3,-32.64 70.5,-35.52 C68.7,-38.4 66.36,-40.72 63.48,-42.48 C60.6,-44.24 57.42,-45.64 53.94,-46.68 C50.46,-47.72 46.98,-48.64 43.5,-49.44 C40.02,-50.24 36.84,-51.04 33.96,-51.84 C31.08,-52.64 28.76,-53.7 27,-55.02 C25.24,-56.34 24.36,-58.08 24.36,-60.24 C24.36,-62.08 24.88,-63.7 25.92,-65.1 C26.96,-66.5 28.68,-67.64 31.08,-68.52 C33.48,-69.4 36.56,-69.84 40.32,-69.84 C44.08,-69.84 47.92,-69.3 51.84,-68.22 C55.76,-67.14 59.68,-65.48 63.6,-63.24 C63.6,-63.24 69.6,-78 69.6,-78 C65.68,-80.48 61.16,-82.34 56.04,-83.58 C50.92,-84.82 45.72,-85.44 40.44,-85.44 C32.52,-85.44 25.94,-84.26 20.7,-81.9 C15.46,-79.54 11.54,-76.38 8.94,-72.42 C6.34,-68.46 5.04,-64.08 5.04,-59.28 C5.04,-54.8 5.94,-51.12 7.74,-48.24 C9.54,-45.36 11.88,-43.04 14.76,-41.28 C17.64,-39.52 20.82,-38.08 24.3,-36.96 C27.78,-35.84 31.26,-34.9 34.74,-34.14 C38.22,-33.38 41.4,-32.58 44.28,-31.74 C47.16,-30.9 49.48,-29.82 51.24,-28.5 C53,-27.18 53.88,-25.4 53.88,-23.16 C53.88,-21.4 53.32,-19.84 52.2,-18.48 C51.08,-17.12 49.34,-16.06 46.98,-15.3 C44.62,-14.54 41.52,-14.16 37.68,-14.16 C32.64,-14.16 27.66,-14.98 22.74,-16.62 C17.82,-18.26 13.56,-20.36 9.96,-22.92 C9.96,-22.92 3.36,-8.28 3.36,-8.28 C7.12,-5.4 12.08,-3.06 18.24,-1.26 C24.4,0.54 30.84,1.44 37.56,1.44 C45.56,1.44 52.18,0.24 57.42,-2.16z"/><g opacity="1" transform="matrix(1.2000000476837158,0,0,1.2000000476837158,0,0)"/></g></g></g></g></g></svg>